<?xml version="1.0" encoding="UTF-8" standalone="no"?>
<svg xmlns="http://www.w3.org/2000/svg" xmlns:xlink="http://www.w3.org/1999/xlink" contentScriptType="application/ecmascript" contentStyleType="text/css" height="192px" preserveAspectRatio="none" style="width:287px;height:192px;" version="1.1" viewBox="0 0 287 192" width="287px" zoomAndPan="magnify"><defs><filter height="300%" id="f1cpj61zeflj70" width="300%" x="-1" y="-1"><feGaussianBlur result="blurOut" stdDeviation="2.0"/><feColorMatrix in="blurOut" result="blurOut2" type="matrix" values="0 0 0 0 0 0 0 0 0 0 0 0 0 0 0 0 0 0 .4 0"/><feOffset dx="4.0" dy="4.0" in="blurOut2" result="blurOut3"/><feBlend in="SourceGraphic" in2="blurOut3" mode="normal"/></filter></defs><g><!--MD5=[972bde5337b4335dd91fa5354c932445]
class Point--><rect fill="#FEFECE" filter="url(#f1cpj61zeflj70)" height="48" id="Point" style="stroke: #A80036; stroke-width: 1.5;" width="64" x="212.5" y="8"/><ellipse cx="227.5" cy="24" fill="#ADD1B2" rx="11" ry="11" style="stroke: #A80036; stroke-width: 1.0;"/><path d="M229.8438,19.6719 L230.0156,19.75 C230.2344,19.4375 230.4375,19.3438 230.7344,19.3438 C231.0313,19.3438 231.3125,19.4844 231.4688,19.75 C231.5625,19.9063 231.5781,20.0313 231.5781,20.4688 L231.5781,21.8906 C231.5781,22.3125 231.5469,22.5 231.4375,22.6563 C231.2656,22.875 231,23.0156 230.7344,23.0156 C230.5156,23.0156 230.2813,22.9063 230.1406,22.7656 C230,22.6406 229.9688,22.5156 229.9063,22.1094 C229.8125,21.7031 229.6406,21.4844 229.1563,21.2031 C228.6875,20.9531 228.0781,20.7969 227.5,20.7969 C225.7656,20.7969 224.5156,22.1094 224.5156,23.8906 L224.5156,24.9844 C224.5156,26.6875 225.8125,27.7813 227.8594,27.7813 C228.625,27.7813 229.3125,27.6563 229.7344,27.3906 C229.9219,27.2969 229.9219,27.2969 230.375,26.8125 C230.5625,26.625 230.7656,26.5469 230.9844,26.5469 C231.4531,26.5469 231.8438,26.9375 231.8438,27.3906 C231.8438,27.7813 231.5156,28.2344 230.9375,28.6406 C230.1875,29.1875 229.0313,29.4844 227.8125,29.4844 C224.9219,29.4844 222.8125,27.5938 222.8125,25.0156 L222.8125,23.8906 C222.8125,21.1719 224.8125,19.0938 227.4375,19.0938 C228.3125,19.0938 228.9063,19.2344 229.8438,19.6719 Z "/><text fill="#000000" font-family="sans-serif" font-size="12" lengthAdjust="spacingAndGlyphs" textLength="32" x="241.5" y="28.1543">Point</text><line style="stroke: #A80036; stroke-width: 1.5;" x1="213.5" x2="275.5" y1="40" y2="40"/><line style="stroke: #A80036; stroke-width: 1.5;" x1="213.5" x2="275.5" y1="48" y2="48"/><!--MD5=[b5313cd49da22b0744b541f414f8445e]
class Rectangle--><rect fill="#FEFECE" filter="url(#f1cpj61zeflj70)" height="48" id="Rectangle" style="stroke: #A80036; stroke-width: 1.5;" width="95" x="6" y="8"/><ellipse cx="21" cy="24" fill="#ADD1B2" rx="11" ry="11" style="stroke: #A80036; stroke-width: 1.0;"/><path d="M23.3438,19.6719 L23.5156,19.75 C23.7344,19.4375 23.9375,19.3438 24.2344,19.3438 C24.5313,19.3438 24.8125,19.4844 24.9688,19.75 C25.0625,19.9063 25.0781,20.0313 25.0781,20.4688 L25.0781,21.8906 C25.0781,22.3125 25.0469,22.5 24.9375,22.6563 C24.7656,22.875 24.5,23.0156 24.2344,23.0156 C24.0156,23.0156 23.7813,22.9063 23.6406,22.7656 C23.5,22.6406 23.4688,22.5156 23.4063,22.1094 C23.3125,21.7031 23.1406,21.4844 22.6563,21.2031 C22.1875,20.9531 21.5781,20.7969 21,20.7969 C19.2656,20.7969 18.0156,22.1094 18.0156,23.8906 L18.0156,24.9844 C18.0156,26.6875 19.3125,27.7813 21.3594,27.7813 C22.125,27.7813 22.8125,27.6563 23.2344,27.3906 C23.4219,27.2969 23.4219,27.2969 23.875,26.8125 C24.0625,26.625 24.2656,26.5469 24.4844,26.5469 C24.9531,26.5469 25.3438,26.9375 25.3438,27.3906 C25.3438,27.7813 25.0156,28.2344 24.4375,28.6406 C23.6875,29.1875 22.5313,29.4844 21.3125,29.4844 C18.4219,29.4844 16.3125,27.5938 16.3125,25.0156 L16.3125,23.8906 C16.3125,21.1719 18.3125,19.0938 20.9375,19.0938 C21.8125,19.0938 22.4063,19.2344 23.3438,19.6719 Z "/><text fill="#000000" font-family="sans-serif" font-size="12" lengthAdjust="spacingAndGlyphs" textLength="63" x="35" y="28.1543">Rectangle</text><line style="stroke: #A80036; stroke-width: 1.5;" x1="7" x2="100" y1="40" y2="40"/><line style="stroke: #A80036; stroke-width: 1.5;" x1="7" x2="100" y1="48" y2="48"/><!--MD5=[5655ee3e2a0d028d03fe20f829576392]
class Square--><rect fill="#FEFECE" filter="url(#f1cpj61zeflj70)" height="48" id="Square" style="stroke: #A80036; stroke-width: 1.5;" width="77" x="15" y="133"/><ellipse cx="30" cy="149" fill="#ADD1B2" rx="11" ry="11" style="stroke: #A80036; stroke-width: 1.0;"/><path d="M32.3438,144.6719 L32.5156,144.75 C32.7344,144.4375 32.9375,144.3438 33.2344,144.3438 C33.5313,144.3438 33.8125,144.4844 33.9688,144.75 C34.0625,144.9063 34.0781,145.0313 34.0781,145.4688 L34.0781,146.8906 C34.0781,147.3125 34.0469,147.5 33.9375,147.6563 C33.7656,147.875 33.5,148.0156 33.2344,148.0156 C33.0156,148.0156 32.7813,147.9063 32.6406,147.7656 C32.5,147.6406 32.4688,147.5156 32.4063,147.1094 C32.3125,146.7031 32.1406,146.4844 31.6563,146.2031 C31.1875,145.9531 30.5781,145.7969 30,145.7969 C28.2656,145.7969 27.0156,147.1094 27.0156,148.8906 L27.0156,149.9844 C27.0156,151.6875 28.3125,152.7813 30.3594,152.7813 C31.125,152.7813 31.8125,152.6563 32.2344,152.3906 C32.4219,152.2969 32.4219,152.2969 32.875,151.8125 C33.0625,151.625 33.2656,151.5469 33.4844,151.5469 C33.9531,151.5469 34.3438,151.9375 34.3438,152.3906 C34.3438,152.7813 34.0156,153.2344 33.4375,153.6406 C32.6875,154.1875 31.5313,154.4844 30.3125,154.4844 C27.4219,154.4844 25.3125,152.5938 25.3125,150.0156 L25.3125,148.8906 C25.3125,146.1719 27.3125,144.0938 29.9375,144.0938 C30.8125,144.0938 31.4063,144.2344 32.3438,144.6719 Z "/><text fill="#000000" font-family="sans-serif" font-size="12" lengthAdjust="spacingAndGlyphs" textLength="45" x="44" y="153.1543">Square</text><line style="stroke: #A80036; stroke-width: 1.5;" x1="16" x2="91" y1="165" y2="165"/><line style="stroke: #A80036; stroke-width: 1.5;" x1="16" x2="91" y1="173" y2="173"/><!--MD5=[420234127eaa6bf61f4f3a670c511881]
link Rectangle to Point--><!--MD5=[420234127eaa6bf61f4f3a670c511881]
link Rectangle to Point--><path d="M101.2047,32 C134.002,32 176.933,32 207.225,32 " fill="none" id="Rectangle-&gt;Point-1" style="stroke: #A80036; stroke-width: 1.0;"/><polygon fill="#A80036" points="212.351,32,203.351,28,207.351,32,203.351,36,212.351,32" style="stroke: #A80036; stroke-width: 1.0;"/><text fill="#000000" font-family="sans-serif" font-size="13" lengthAdjust="spacingAndGlyphs" textLength="75" x="119.25" y="25.0669">depends on</text><!--MD5=[da1c883970fc9f8ff4dba8cbad67d066]
reverse link Rectangle to Square--><path d="M53.5,61.203 C53.5,82.9472 53.5,112.6418 53.5,132.9684 " fill="none" id="Rectangle&lt;-Square" style="stroke: #A80036; stroke-width: 1.0;"/><polygon fill="#A80036" points="53.5,56.135,49.5,65.135,53.5,61.135,57.5,65.135,53.5,56.135" style="stroke: #A80036; stroke-width: 1.0;"/><text fill="#000000" font-family="sans-serif" font-size="13" lengthAdjust="spacingAndGlyphs" textLength="75" x="54.5" y="99.0669">depends on</text><!--MD5=[d15d1f6f5b83596db53b50dab4b9ce05]
@startuml
class Point
class Rectangle
class Square


Rectangle -[hidden]> Point

Rectangle - -> Point: depends on
Rectangle <- - Square : depends on
@enduml

PlantUML version 1.2019.12(Sun Nov 03 10:24:54 UTC 2019)
(GPL source distribution)
Java Runtime: Java(TM) SE Runtime Environment
JVM: Java HotSpot(TM) 64-Bit Server VM
Java Version: 1.7.0_25-b15
Operating System: Linux
Default Encoding: UTF-8
Language: en
Country: US
--></g></svg>