<?xml version="1.0" encoding="UTF-8" standalone="no"?>
<svg xmlns="http://www.w3.org/2000/svg" xmlns:xlink="http://www.w3.org/1999/xlink" contentScriptType="application/ecmascript" contentStyleType="text/css" height="315px" preserveAspectRatio="none" style="width:223px;height:315px;" version="1.1" viewBox="0 0 223 315" width="223px" zoomAndPan="magnify"><defs><filter height="300%" id="f7i8eiyjh2vs8" width="300%" x="-1" y="-1"><feGaussianBlur result="blurOut" stdDeviation="2.0"/><feColorMatrix in="blurOut" result="blurOut2" type="matrix" values="0 0 0 0 0 0 0 0 0 0 0 0 0 0 0 0 0 0 .4 0"/><feOffset dx="4.0" dy="4.0" in="blurOut2" result="blurOut3"/><feBlend in="SourceGraphic" in2="blurOut3" mode="normal"/></filter></defs><g><!--MD5=[b5313cd49da22b0744b541f414f8445e]
class Rectangle--><rect fill="#FEFECE" filter="url(#f7i8eiyjh2vs8)" height="163.2422" id="Rectangle" style="stroke: #A80036; stroke-width: 1.5;" width="206" x="6" y="8"/><ellipse cx="73.25" cy="24" fill="#ADD1B2" rx="11" ry="11" style="stroke: #A80036; stroke-width: 1.0;"/><path d="M75.5938,19.6719 L75.7656,19.75 C75.9844,19.4375 76.1875,19.3438 76.4844,19.3438 C76.7813,19.3438 77.0625,19.4844 77.2188,19.75 C77.3125,19.9063 77.3281,20.0313 77.3281,20.4688 L77.3281,21.8906 C77.3281,22.3125 77.2969,22.5 77.1875,22.6563 C77.0156,22.875 76.75,23.0156 76.4844,23.0156 C76.2656,23.0156 76.0313,22.9063 75.8906,22.7656 C75.75,22.6406 75.7188,22.5156 75.6563,22.1094 C75.5625,21.7031 75.3906,21.4844 74.9063,21.2031 C74.4375,20.9531 73.8281,20.7969 73.25,20.7969 C71.5156,20.7969 70.2656,22.1094 70.2656,23.8906 L70.2656,24.9844 C70.2656,26.6875 71.5625,27.7813 73.6094,27.7813 C74.375,27.7813 75.0625,27.6563 75.4844,27.3906 C75.6719,27.2969 75.6719,27.2969 76.125,26.8125 C76.3125,26.625 76.5156,26.5469 76.7344,26.5469 C77.2031,26.5469 77.5938,26.9375 77.5938,27.3906 C77.5938,27.7813 77.2656,28.2344 76.6875,28.6406 C75.9375,29.1875 74.7813,29.4844 73.5625,29.4844 C70.6719,29.4844 68.5625,27.5938 68.5625,25.0156 L68.5625,23.8906 C68.5625,21.1719 70.5625,19.0938 73.1875,19.0938 C74.0625,19.0938 74.6563,19.2344 75.5938,19.6719 Z "/><text fill="#000000" font-family="sans-serif" font-size="12" lengthAdjust="spacingAndGlyphs" textLength="63" x="93.75" y="28.1543">Rectangle</text><line style="stroke: #A80036; stroke-width: 1.5;" x1="7" x2="211" y1="40" y2="40"/><polygon fill="none" points="17,46,21,50,17,54,13,50" style="stroke: #B38D22; stroke-width: 1.0;"/><text fill="#000000" font-family="sans-serif" font-size="11" lengthAdjust="spacingAndGlyphs" textLength="6" x="26" y="54.2104">x</text><polygon fill="none" points="17,58.8047,21,62.8047,17,66.8047,13,62.8047" style="stroke: #B38D22; stroke-width: 1.0;"/><text fill="#000000" font-family="sans-serif" font-size="11" lengthAdjust="spacingAndGlyphs" textLength="6" x="26" y="67.0151">y</text><polygon fill="none" points="17,71.6094,21,75.6094,17,79.6094,13,75.6094" style="stroke: #B38D22; stroke-width: 1.0;"/><text fill="#000000" font-family="sans-serif" font-size="11" lengthAdjust="spacingAndGlyphs" textLength="30" x="26" y="79.8198">width</text><polygon fill="none" points="17,84.4141,21,88.4141,17,92.4141,13,88.4141" style="stroke: #B38D22; stroke-width: 1.0;"/><text fill="#000000" font-family="sans-serif" font-size="11" lengthAdjust="spacingAndGlyphs" textLength="35" x="26" y="92.6245">height</text><line style="stroke: #A80036; stroke-width: 1.5;" x1="7" x2="211" y1="99.2188" y2="99.2188"/><ellipse cx="17" cy="110.2188" fill="#84BE84" rx="3" ry="3" style="stroke: #038048; stroke-width: 1.0;"/><text fill="#000000" font-family="sans-serif" font-size="11" lengthAdjust="spacingAndGlyphs" textLength="180" x="26" y="113.4292">Rectangle (origin, width, height)</text><ellipse cx="17" cy="123.0234" fill="#84BE84" rx="3" ry="3" style="stroke: #038048; stroke-width: 1.0;"/><text fill="#000000" font-family="sans-serif" font-size="11" lengthAdjust="spacingAndGlyphs" textLength="60" x="26" y="126.2339">getWidth ()</text><ellipse cx="17" cy="135.8281" fill="#84BE84" rx="3" ry="3" style="stroke: #038048; stroke-width: 1.0;"/><text fill="#000000" font-family="sans-serif" font-size="11" lengthAdjust="spacingAndGlyphs" textLength="66" x="26" y="139.0386">getHeight ()</text><ellipse cx="17" cy="148.6328" fill="#84BE84" rx="3" ry="3" style="stroke: #038048; stroke-width: 1.0;"/><text fill="#000000" font-family="sans-serif" font-size="11" lengthAdjust="spacingAndGlyphs" textLength="104" x="26" y="151.8433">transpose (dx, dy)</text><ellipse cx="17" cy="161.4375" fill="#84BE84" rx="3" ry="3" style="stroke: #038048; stroke-width: 1.0;"/><text fill="#000000" font-family="sans-serif" font-size="11" lengthAdjust="spacingAndGlyphs" textLength="117" x="26" y="164.6479">rotate (origin, angle)</text><!--MD5=[5655ee3e2a0d028d03fe20f829576392]
class Square--><rect fill="#FEFECE" filter="url(#f7i8eiyjh2vs8)" height="73.6094" id="Square" style="stroke: #A80036; stroke-width: 1.5;" width="101" x="58.5" y="231"/><ellipse cx="84.3" cy="247" fill="#ADD1B2" rx="11" ry="11" style="stroke: #A80036; stroke-width: 1.0;"/><path d="M86.6438,242.6719 L86.8156,242.75 C87.0344,242.4375 87.2375,242.3438 87.5344,242.3438 C87.8313,242.3438 88.1125,242.4844 88.2688,242.75 C88.3625,242.9063 88.3781,243.0313 88.3781,243.4688 L88.3781,244.8906 C88.3781,245.3125 88.3469,245.5 88.2375,245.6563 C88.0656,245.875 87.8,246.0156 87.5344,246.0156 C87.3156,246.0156 87.0813,245.9063 86.9406,245.7656 C86.8,245.6406 86.7688,245.5156 86.7063,245.1094 C86.6125,244.7031 86.4406,244.4844 85.9563,244.2031 C85.4875,243.9531 84.8781,243.7969 84.3,243.7969 C82.5656,243.7969 81.3156,245.1094 81.3156,246.8906 L81.3156,247.9844 C81.3156,249.6875 82.6125,250.7813 84.6594,250.7813 C85.425,250.7813 86.1125,250.6563 86.5344,250.3906 C86.7219,250.2969 86.7219,250.2969 87.175,249.8125 C87.3625,249.625 87.5656,249.5469 87.7844,249.5469 C88.2531,249.5469 88.6438,249.9375 88.6438,250.3906 C88.6438,250.7813 88.3156,251.2344 87.7375,251.6406 C86.9875,252.1875 85.8313,252.4844 84.6125,252.4844 C81.7219,252.4844 79.6125,250.5938 79.6125,248.0156 L79.6125,246.8906 C79.6125,244.1719 81.6125,242.0938 84.2375,242.0938 C85.1125,242.0938 85.7063,242.2344 86.6438,242.6719 Z "/><text fill="#000000" font-family="sans-serif" font-size="12" lengthAdjust="spacingAndGlyphs" textLength="45" x="100.7" y="251.1543">Square</text><line style="stroke: #A80036; stroke-width: 1.5;" x1="59.5" x2="158.5" y1="263" y2="263"/><line style="stroke: #A80036; stroke-width: 1.5;" x1="59.5" x2="158.5" y1="271" y2="271"/><ellipse cx="69.5" cy="282" fill="#84BE84" rx="3" ry="3" style="stroke: #038048; stroke-width: 1.0;"/><text fill="#000000" font-family="sans-serif" font-size="11" lengthAdjust="spacingAndGlyphs" textLength="75" x="78.5" y="285.2104">Square (size)</text><ellipse cx="69.5" cy="294.8047" fill="#84BE84" rx="3" ry="3" style="stroke: #038048; stroke-width: 1.0;"/><text fill="#000000" font-family="sans-serif" font-size="11" lengthAdjust="spacingAndGlyphs" textLength="38" x="78.5" y="298.0151">area ()</text><!--MD5=[da1c883970fc9f8ff4dba8cbad67d066]
reverse link Rectangle to Square--><path d="M109,191.121 C109,205.2576 109,218.9623 109,230.7449 " fill="none" id="Rectangle&lt;-Square" style="stroke: #A80036; stroke-width: 1.0;"/><polygon fill="none" points="102.0001,191.003,109,171.003,116,191.002,102.0001,191.003" style="stroke: #A80036; stroke-width: 1.0;"/><!--MD5=[3cabeb0be11c56b87018c3ff7284e75d]
@startuml
class Rectangle {
    # x
    # y
    # width
    # height
    + Rectangle (origin, width, height)
    + getWidth ()
    + getHeight ()
    + transpose (dx, dy)
    + rotate (origin, angle)
}

class Square extends Rectangle {
    + Square (size)
    + area ()
}
@enduml

PlantUML version 1.2019.12(Sun Nov 03 10:24:54 UTC 2019)
(GPL source distribution)
Java Runtime: Java(TM) SE Runtime Environment
JVM: Java HotSpot(TM) 64-Bit Server VM
Java Version: 1.7.0_25-b15
Operating System: Linux
Default Encoding: UTF-8
Language: en
Country: US
--></g></svg>